<?xml version="1.0" encoding="UTF-8"?>
<svg viewBox="0 0 793.7 1122.5" xmlns="http://www.w3.org/2000/svg">
 <defs>
  <linearGradient id="a" x1=".76877" x2=".25225" y1="1.4657" y2=".29902" spreadMethod="reflect">
   <stop stop-color="#8a8a8a" offset="0"/>
   <stop stop-color="#cecece" offset="1"/>
  </linearGradient>
 </defs>
 <g fill-rule="evenodd">
  <g stroke-linecap="round" stroke-linejoin="round">
   <rect x="50.824" y="129.6" width="656.44" height="898.29" rx="50" ry="40" fill="#121212" fill-opacity=".502" stroke="#808080" stroke-opacity=".31" stroke-width="15"/>
   <rect x="30.67" y="99.369" width="656.44" height="898.29" rx="50" ry="40" fill="#7f3600" stroke="#e36d16" stroke-width="3.75"/>
  </g>
  <rect transform="matrix(.99993 .011452 -.011452 .99993 0 0)" x="68.796" y="157.07" width="603.18" height="809.04" fill="#fafcff" fill-opacity=".977" stroke="#858585" stroke-width=".625"/>
 </g>
 <path d="m248.05 175.67l237.53-1.4396c1.1547-28.92-42.284-20.998-51.824-37.429-7.7343-13.32 1.5444-37.446 0-51.824-1.4546-13.542-6.7263-27.186-17.996-37.461-5.6347-5.1373-12.769-9.4321-21.675-12.45-8.9062-3.0184-19.584-4.7604-32.307-4.792-12.717-0.03159-23.537 0.76691-31.769 4.6132-55.195 25.823-6.6672 59.13 17.68 36.49 21.44-19.937 47.929 18.895 26.158 36.674-21.981 17.95-46.847-19.104-26.823-35.538 20.985-17.223 10.679-62.159-37.57-25.404-11.567 8.8173-15.041 23.43-16.775 36.429-1.96 14.691 7.5124 42.073 0 57.583-7.3631 15.201-43.285 5.8723-44.627 34.55z" fill="url(#a)" stroke-width="1.25"/>
 <g font-family="Arial" stroke="#000">
  <text transform="matrix(2.8986 0 0 3.1071 -130.45 -502.21)" x="173.299194" y="248.480347" fill="#f00" font-size="24" font-weight="bold" stroke-width="0" text-anchor="middle" xml:space="preserve">CHECKLIST</text>
  <g fill="#fff" stroke-width="5">
   <rect x="130.3" y="344.48" width="72" height="72"/>
   <rect x="247.3" y="415.48" width="319" height="2"/>
   <rect x="130.3" y="447.48" width="72" height="72"/>
   <rect x="247.3" y="518.48" width="319" height="2"/>
   <rect x="131.3" y="547.48" width="72" height="72"/>
   <rect x="248.3" y="618.48" width="319" height="2"/>
   <rect x="131.3" y="644.48" width="72" height="72"/>
   <rect x="248.3" y="715.48" width="319" height="2"/>
   <rect x="132.3" y="744.48" width="72" height="72"/>
   <rect x="249.3" y="815.48" width="319" height="2"/>
  </g>
  <g font-size="75" stroke-width="0" text-anchor="middle">
   <text x="165.299194" y="407.480347" xml:space="preserve">?</text>
   <text x="163.098404" y="509.460663" xml:space="preserve">?</text>
   <text x="165.098404" y="610.460663" xml:space="preserve">?</text>
   <text x="169.098404" y="706.460663" xml:space="preserve">?</text>
   <text x="168.098404" y="807.460663" xml:space="preserve">?</text>
  </g>
 </g>
</svg>
